<svg viewBox="0 0 150 43" xmlns="http://www.w3.org/2000/svg"><g fill="currentColor" id="logo"><path d="M131.314 12.951h3.814c1.69 0 2.867-.4 3.532-1.199.664-.799.997-2.199.997-4.201 0-.878-.105-1.605-.314-2.181-.21-.576-.535-1.026-.975-1.35-.441-.324-1.007-.547-1.701-.669-.694-.122-1.532-.183-2.514-.183h-2.839v9.783zm-6.934 15.702v-1.102c.982 0 1.657-.126 2.026-.378.368-.252.553-.688.553-1.307v-22.461c0-.806-.184-1.318-.553-1.534-.369-.216-1.044-.324-2.026-.324v-1.08h9.556c2.889 0 5.298.49 7.227 1.469 1.928.979 2.893 3.017 2.893 6.112 0 2.793-.758 4.766-2.275 5.918-1.445 1.123-2.716 1.67-3.814 1.641l3.727 4.644 2.882-3.672h2.449l-4.074 5.356 3.619 4.104c.505.504.982.868 1.43 1.091.448.223 1.098.363 1.95.421v1.102h-9.274v-1.102c.794 0 1.325-.14 1.593-.421.267-.281.198-.702-.206-1.264l-1.127-1.555-13.23 18.687h-2.081l14.033-20.004-6.002-7.387h-2.34v10.259c0 .619.184 1.055.553 1.307.368.252 1.058.378 2.069.378v1.102h-9.556z"/><path d="M120.945 28.466h-11.571v-.885c.824 0 1.517-.111 2.08-.335.563-.223.845-.731.845-1.523 0-.619-.101-1.195-.303-1.728l-6.436-14.988-5.786 15.658c-.231.764-.347 1.218-.347 1.361 0 .676.26 1.105.78 1.285.52.18 1.235.27 2.145.27v.885h-8.928v-.885c.361 0 .754-.076 1.181-.226.426-.151.834-.357 1.224-.616s.74-.591 1.051-.994c.311-.402.538-.871.683-1.404l8.971-24.275 10.552 24.275c.419.921.91 1.656 1.474 2.203.563.547 1.358.893 2.384 1.037v.885z"/><path d="M90.361 28.466h-23.359v-.583l17.573-25.204h-10.249c-1.532 0-2.731.605-3.597 1.814-.405.591-.733 1.239-.986 1.944-.253.706-.437 1.44-.553 2.203h-1.3l.975-7.905h21.842v.972l-18.007 24.902h12.199c1.156 0 2.153-.346 2.991-1.037.838-.691 1.553-2.058 2.145-4.103h1.3l-.975 6.997z"/><path d="M38.627.735l1.521.668c.812.402 1.463 1.113 1.954 2.132.491 1.02.769 2.361.835 4.024.092 2.052.285 3.521.579 4.406.295.886.913 1.64 1.855 2.263.943.624 2.298.935 4.065.935h3.77c1.78 0 3.132-.309 4.055-.926.923-.616 1.538-1.368 1.846-2.253.308-.885.507-2.36.599-4.426.091-2.293.592-4 1.502-5.12.91-1.119.91-1.119 2.965-1.679l-.403 5.11c0 2.575-.265 4.564-.795 5.965-.53 1.401-1.594 2.538-3.191 3.41-1.597.872-3.79 1.341-6.578 1.408v6.377c0 1.569.088 2.585.265 3.048.177.463.55.835 1.12 1.117.569.281 1.449.422 2.641.422v.744h-11.822v-.744c1.165-.013 2.032-.144 2.602-.393.57-.248.949-.61 1.139-1.086.189-.475.284-1.512.284-3.108v-6.377c-2.815-.067-5.001-.53-6.558-1.388-1.558-.858-2.615-1.981-3.171-3.369-.557-1.388-.834-3.403-.834-6.046l-.246-5.114z"/><path d="M4.32 4.838c0-.46-.036-.864-.108-1.209-.073-.345-.242-.626-.509-.842-.268-.216-.661-.385-1.181-.508-.52-.122-1.221-.212-2.102-.27v-.972h8.039l9.621 20.798 9.274-20.798h8.082v.972c-.621.058-1.134.115-1.538.173-.405.058-.737.133-.997.226-.26.094-.466.213-.618.357-.152.144-.285.353-.401.626-.246.533-.368 1.339-.368 2.419v19.157c0 .619.112 1.091.336 1.415.224.324.513.569.867.735.354.166.769.27 1.246.313.476.043.968.093 1.473.151v.885h-11.593v-.885c1.271-.144 2.131-.342 2.578-.594.448-.252.759-.702.932-1.35v-19.459l-10.25 22.289h-.672l-9.946-21.317v17.516c0 .821.155 1.422.466 1.804.311.382.646.622 1.008.723.39.086 1.191.216 2.405.389v.885h-10.315v-.885c1.69-.173 2.817-.396 3.381-.67.592-.259.888-.907.888-1.944v-20.129z"/></g></svg>
