<svg xmlns="http://www.w3.org/2000/svg" viewBox="0 0 72 14" enable-background="new 0 0 72 14"><g><g fill="#693D16"><path d="M7.101 8.861c0 .408.003.782.01 1.12l.029 1.023.038 1.063c.013.363.032.769.058 1.215l-.665-.076c-.225-.025-.447-.039-.665-.039-.193 0-.412.014-.656.039l-.636.076.038-1.273.039-1.435.028-1.378.01-1.101-1.131-1.951c-.242-.422-.52-.893-.833-1.416l-.956-1.589-.967-1.579c-.319-.517-.599-.986-.842-1.407l.89.086c.236.02.462.028.68.028.229 0 .478-.006.746-.019s.542-.045.823-.096c.242.523.479 1.021.708 1.492.229.473.472.957.728 1.455s.538 1.03.847 1.598c.308.57.669 1.21 1.08 1.925.412-.701.751-1.292 1.02-1.771.268-.478.513-.938.737-1.377.223-.44.453-.916.689-1.426l.871-1.895.507.076c.185.025.386.038.603.038.191 0 .347-.009.469-.028.121-.02.232-.048.335-.086l-.393.65-.593.967-.593.957-.393.622c-.434.689-.842 1.388-1.225 2.095-.383.709-.778 1.408-1.186 2.096l-.173.326c-.051.102-.076.197-.076.287v.708zM24.785 0c.893 0 1.764.124 2.613.373.848.249 1.604.642 2.268 1.177.664.536 1.196 1.216 1.598 2.039.402.822.603 1.809.603 2.957 0 1.071-.172 2.037-.517 2.898-.345.861-.83 1.596-1.455 2.201-.625.606-1.378 1.075-2.259 1.407-.88.331-1.85.497-2.909.497-.996 0-1.927-.143-2.794-.43s-1.624-.709-2.268-1.264c-.645-.555-1.151-1.24-1.521-2.058-.37-.816-.555-1.747-.555-2.794 0-1.213.194-2.259.584-3.139.389-.881.912-1.607 1.569-2.182s1.419-.998 2.287-1.273c.867-.271 1.786-.409 2.756-.409zm-4.575 6.774c0 .715.08 1.42.239 2.115s.421 1.314.785 1.856c.364.542.83.983 1.397 1.321.567.338 1.266.507 2.096.507.816 0 1.508-.173 2.076-.517.568-.345 1.034-.795 1.397-1.35s.628-1.177.794-1.866c.166-.688.249-1.378.249-2.067 0-.777-.08-1.518-.239-2.22-.16-.701-.415-1.317-.766-1.847s-.813-.95-1.388-1.264c-.574-.313-1.282-.469-2.124-.469-.83 0-1.528.18-2.096.536-.568.357-1.034.817-1.397 1.378-.363.563-.625 1.188-.785 1.876s-.238 1.361-.238 2.011zM46.066 0c.893 0 1.764.124 2.613.373.848.249 1.604.642 2.268 1.177.664.536 1.196 1.216 1.598 2.039.402.822.603 1.809.603 2.957 0 1.071-.172 2.037-.517 2.898-.345.861-.83 1.596-1.455 2.201-.625.606-1.378 1.075-2.259 1.407-.88.331-1.85.497-2.909.497-.996 0-1.927-.143-2.794-.43s-1.624-.709-2.268-1.264c-.645-.555-1.151-1.24-1.521-2.058-.37-.816-.555-1.747-.555-2.794 0-1.213.194-2.259.584-3.139.389-.881.912-1.607 1.569-2.182s1.419-.998 2.287-1.273c.868-.271 1.787-.409 2.756-.409zm-4.574 6.774c0 .715.08 1.42.239 2.115s.421 1.314.785 1.856c.364.542.83.983 1.397 1.321.567.338 1.266.507 2.096.507.816 0 1.508-.173 2.076-.517.568-.345 1.034-.795 1.397-1.35s.628-1.177.794-1.866c.166-.688.249-1.378.249-2.067 0-.777-.08-1.518-.239-2.22-.16-.701-.415-1.317-.766-1.847s-.813-.95-1.388-1.264c-.574-.313-1.282-.469-2.124-.469-.83 0-1.528.18-2.096.536-.568.357-1.034.817-1.397 1.378-.363.563-.625 1.188-.785 1.876s-.238 1.361-.238 2.011zM60.861 5.53c0-.905-.003-1.805-.01-2.697-.006-.894-.016-1.787-.029-2.68l.23.028.229.01.22-.01.22-.028 1.358 1.473c.447.486.906.971 1.378 1.455.472.485.963.986 1.474 1.502.51.518 1.052 1.057 1.626 1.617l2.259 2.221c.178.179.328.319.45.421l.507.402v-4.249c0-.816-.022-1.63-.067-2.44-.045-.81-.099-1.61-.163-2.401l.364.076c.127.025.28.038.459.038s.329-.013.45-.038l.354-.076-.105 1.588c-.03.485-.053.973-.065 1.464-.013.49-.022 1.008-.029 1.55s-.009 1.165-.009 1.866v1.091l.009 1.388.01 1.368v1.4169999999999998l.009.525.01.536v.431l-.191-.029-.191-.009-.201.009-.201.029-1.388-1.465c-.517-.541-1.056-1.1-1.617-1.674s-1.136-1.154-1.723-1.742c-.587-.586-1.155-1.148-1.703-1.684-.549-.536-1.059-1.03-1.531-1.483-.472-.452-.874-.833-1.206-1.139v1.751c0 .518.003 1.008.009 1.474l.02 1.368.028 1.436.01.699.029.584.048.717.086 1.063-.402-.066c-.166-.032-.319-.049-.459-.049s-.274.014-.402.039l-.363.076.153-2.66.029-.526.019-.708.01-.709v-3.15z"/></g></g></svg>